<?xml version="1.0" encoding="UTF-8"?>
<svg width="512" height="512" viewBox="0 0 512 512" fill="none" xmlns="http://www.w3.org/2000/svg">
  <rect width="512" height="512" rx="100" fill="#000000"/>
  <g transform="translate(106, 106) scale(10)">
    <path fill-rule="evenodd" clip-rule="evenodd" d="M15 28.5C22.4558 28.5 28.5 22.4558 28.5 15C28.5 7.54416 22.4558 1.5 15 1.5C7.54416 1.5 1.5 7.54416 1.5 15C1.5 22.4558 7.54416 28.5 15 28.5ZM15 30C23.2843 30 30 23.2843 30 15C30 6.71573 23.2843 0 15 0C6.71573 0 0 6.71573 0 15C0 23.2843 6.71573 30 15 30Z" fill="white"/>
    <path d="M6 9.5L8.55057 17.3372H10.1478L7.59855 9.5H6Z" fill="white"/>
    <path d="M22.4015 9.50004L19.1006 19.6442L17.3481 14.2602H15.7509L18.3015 22.1H19.9L24 9.50004H22.4015Z" fill="white"/>
    <path d="M10.1 22.1L14.2014 9.50004H15.7986L11.6986 22.1H10.1Z" fill="white"/>
  </g>
</svg>
